<svg
    class="lg:-mx-4 relative"
    viewBox="0 0 1340 241"
    fill="none"
    xmlns="http://www.w3.org/2000/svg"
>
    <path
        d="M98.2778 101.249H1.80471C1.49172 132.633 6.50927 155.391 34.6323 197H258.397C270.116 182.328 282.614 167.112 285.865 146.781C136.465 152.138 107.657 160.173 98.2778 101.249Z"
        fill="black" />
    <path
        d="M186.677 98.8069L283.132 100.659C284.048 69.2874 279.469 46.4374 252.151 4.29586L28.4282 0C16.4288 14.4441 3.64104 29.4175 0 49.6822C149.475 47.1947 178.432 39.7143 186.677 98.8069Z"
        fill="black" />
    <path
        d="M432.343 156.995H357.276L356.54 140.081L390.21 71.3219H354.7L352.86 42.8254H430.503L431.423 60.8425L399.409 130.705H432.343V156.995Z"
        fill="black" />
    <path
        d="M504.126 156.995H442.306V42.8254H505.966L504.126 70.9542H473.768V88.0521H500.079V112.32H473.768V131.256H505.966L504.126 156.995Z"
        fill="black" />
    <path
        d="M599.303 42.8254L579.985 156.995H531.411L510.805 42.8254H545.579L555.514 117.652H558.642L566.185 42.8254H599.303Z"
        fill="black" />
    <path
        d="M616.393 54.7755C623.507 45.5831 635.098 40.9869 651.167 40.9869C667.235 40.9869 678.704 45.5218 685.573 54.5917C692.564 63.6615 696.06 78.4307 696.06 98.8991C696.06 119.245 692.503 134.321 685.389 144.126C678.275 153.931 666.745 158.834 650.799 158.834C634.853 158.834 623.385 153.992 616.393 144.31C609.401 134.627 605.906 119.613 605.906 99.2668C605.906 78.7984 609.401 63.9679 616.393 54.7755ZM664.414 98.8991C664.414 87.6231 663.494 80.024 661.654 76.1019C659.937 72.0573 656.319 70.0349 650.799 70.0349C645.402 70.0349 641.906 72.0573 640.312 76.1019C638.717 80.024 637.92 87.5618 637.92 98.7153V103.128C637.92 115.017 638.778 122.861 640.495 126.66C642.335 130.337 645.954 132.176 651.351 132.176C656.871 132.176 660.428 130.399 662.022 126.844C663.617 123.29 664.414 115.936 664.414 104.782V98.8991Z"
        fill="black" />
    <path
        d="M703.436 77.205C703.436 66.2967 706.625 57.5333 713.003 50.9147C719.381 44.2962 728.09 40.9869 739.13 40.9869C750.292 40.9869 761.699 42.09 773.352 44.2962L769.672 73.7119C757.529 70.8929 749.188 69.4834 744.649 69.4834C738.884 69.4834 736.002 71.8121 736.002 76.4696C736.002 78.3081 737.351 80.0853 740.05 81.8012C742.871 83.5172 746.244 85.3556 750.169 87.3167C754.094 89.1552 758.019 91.4226 761.944 94.1191C765.869 96.693 769.181 100.431 771.88 105.334C774.701 110.236 776.111 115.874 776.111 122.248C776.111 133.892 772.984 142.9 766.728 149.274C760.472 155.647 751.58 158.834 740.05 158.834C728.642 158.834 717.48 157.057 706.563 153.502L708.587 126.109C721.712 129.908 730.85 131.808 736.002 131.808C741.154 131.808 743.729 129.541 743.729 125.006C743.729 122.677 742.319 120.532 739.498 118.571C736.799 116.61 733.487 114.649 729.562 112.688C725.637 110.727 721.651 108.459 717.603 105.885C713.678 103.312 710.305 99.5733 707.483 94.6706C704.785 89.768 703.436 83.9461 703.436 77.205Z"
        fill="black" />
    <path
        d="M853.526 70.5865H832.184V156.995H800.721V70.5865H778.091L779.931 42.8254H855.366L853.526 70.5865Z"
        fill="black" />
    <path
        d="M894.769 119.49C894.769 123.29 895.566 126.109 897.161 127.947C898.755 129.786 901.331 130.705 904.888 130.705C908.568 130.705 911.082 129.847 912.432 128.131C913.904 126.293 914.64 123.351 914.64 119.306V42.8254H946.286V121.145C946.286 134.259 942.667 143.819 935.43 149.825C928.316 155.831 917.767 158.834 903.784 158.834C889.924 158.834 879.559 155.892 872.69 150.009C865.944 144.003 862.571 134.504 862.571 121.513V42.8254H894.769V119.49Z"
        fill="black" />
    <path
        d="M1047.47 97.4284C1047.47 137.14 1031.77 156.995 1000.37 156.995H962.471V42.8254H1001.11C1017.91 42.8254 1029.81 47.5442 1036.8 56.9817C1043.92 66.2967 1047.47 79.7789 1047.47 97.4284ZM999.821 130.521C1006.32 130.521 1010.49 128.254 1012.33 123.719C1014.29 119.061 1015.28 111.34 1015.28 100.554C1015.28 89.6454 1014.23 81.9238 1012.15 77.3889C1010.19 72.854 1005.89 70.5865 999.269 70.5865H993.749V130.521H999.821Z"
        fill="black" />
    <path d="M1092.44 156.995H1061.16V42.8254H1092.44V156.995Z" fill="black" />
    <path
        d="M1117.33 54.7755C1124.45 45.5831 1136.04 40.9869 1152.11 40.9869C1168.17 40.9869 1179.64 45.5218 1186.51 54.5917C1193.5 63.6615 1197 78.4307 1197 98.8991C1197 119.245 1193.44 134.321 1186.33 144.126C1179.21 153.931 1167.68 158.834 1151.74 158.834C1135.79 158.834 1124.32 153.992 1117.33 144.31C1110.34 134.627 1106.85 119.613 1106.85 99.2668C1106.85 78.7984 1110.34 63.9679 1117.33 54.7755ZM1165.35 98.8991C1165.35 87.6231 1164.43 80.024 1162.59 76.1019C1160.88 72.0573 1157.26 70.0349 1151.74 70.0349C1146.34 70.0349 1142.85 72.0573 1141.25 76.1019C1139.66 80.024 1138.86 87.5618 1138.86 98.7153V103.128C1138.86 115.017 1139.72 122.861 1141.44 126.66C1143.28 130.337 1146.89 132.176 1152.29 132.176C1157.81 132.176 1161.37 130.399 1162.96 126.844C1164.56 123.29 1165.35 115.936 1165.35 104.782V98.8991Z"
        fill="black" />
</svg>
<svg width="630" height="88" viewBox="0 0 630 88" fill="none" xmlns="http://www.w3.org/2000/svg">
    <path
        d="M59.3202 86.6271H3.29556L2.7463 73.9969L27.875 22.6521H1.37315L0 1.37285H57.947L58.6336 14.8268L34.7407 66.9953H59.3202V86.6271Z"
        fill="black" />
    <path
        d="M112.893 86.6271H66.7556V1.37285H114.267L112.893 22.3775H90.2365V35.1451H109.873V53.2668H90.2365V67.4072H114.267L112.893 86.6271Z"
        fill="black" />
    <path
        d="M183.926 1.37285L169.508 86.6271H133.257L117.878 1.37285H143.83L151.245 57.2481H153.58L159.209 1.37285H183.926Z"
        fill="black" />
    <path
        d="M196.68 10.2964C201.99 3.43214 210.641 0 222.633 0C234.625 0 243.185 3.38638 248.311 10.1591C253.529 16.9319 256.138 27.9605 256.138 43.2449C256.138 58.4379 253.483 69.6953 248.174 77.0172C242.864 84.3391 234.259 88 222.358 88C210.458 88 201.898 84.3848 196.68 77.1544C191.462 69.9241 188.853 58.7124 188.853 43.5195C188.853 28.2351 191.462 17.1607 196.68 10.2964ZM232.52 43.2449C232.52 34.8248 231.833 29.1503 230.46 26.2215C229.178 23.2013 226.478 21.6911 222.358 21.6911C218.33 21.6911 215.721 23.2013 214.531 26.2215C213.341 29.1503 212.746 34.779 212.746 43.1077V46.4025C212.746 55.2803 213.387 61.1378 214.669 63.975C216.042 66.7208 218.742 68.0936 222.77 68.0936C226.89 68.0936 229.545 66.7665 230.735 64.1123C231.925 61.4581 232.52 55.9667 232.52 47.6381V43.2449Z"
        fill="black" />
    <path
        d="M261.642 27.0452C261.642 18.8996 264.022 12.3557 268.783 7.41342C273.543 2.47114 280.043 0 288.281 0C296.612 0 305.125 0.823713 313.822 2.47114L311.076 24.4368C302.013 22.3318 295.788 21.2793 292.401 21.2793C288.098 21.2793 285.947 23.0182 285.947 26.4961C285.947 27.869 286.954 29.1961 288.968 30.4774C291.074 31.7587 293.591 33.1316 296.52 34.5959C299.45 35.9688 302.379 37.662 305.309 39.6755C308.238 41.5975 310.71 44.389 312.724 48.0499C314.829 51.7109 315.882 55.921 315.882 60.6802C315.882 69.3749 313.547 76.1019 308.879 80.8612C304.21 85.6204 297.573 88 288.968 88C280.454 88 272.124 86.6729 263.977 84.0187L265.487 63.5632C275.282 66.4004 282.102 67.819 285.947 67.819C289.792 67.819 291.714 66.1258 291.714 62.7395C291.714 61.0005 290.662 59.3989 288.556 57.9345C286.542 56.4701 284.07 55.0057 281.141 53.5413C278.212 52.077 275.237 50.3838 272.216 48.4618C269.286 46.5398 266.769 43.7483 264.663 40.0874C262.649 36.4264 261.642 32.079 261.642 27.0452Z"
        fill="black" />
    <path
        d="M373.658 22.103H357.73V86.6271H334.249V22.103H317.359L318.732 1.37285H375.031L373.658 22.103Z"
        fill="black" />
    <path
        d="M404.438 58.6209C404.438 61.4581 405.033 63.5632 406.223 64.936C407.413 66.3089 409.336 66.9953 411.991 66.9953C414.737 66.9953 416.614 66.3547 417.621 65.0733C418.719 63.7005 419.268 61.5039 419.268 58.4836V1.37285H442.887V59.8565C442.887 69.6495 440.186 76.7884 434.785 81.273C429.475 85.7577 421.603 88 411.167 88C400.822 88 393.087 85.8034 387.96 81.4103C382.926 76.9256 380.408 69.8326 380.408 60.131V1.37285H404.438V58.6209Z"
        fill="black" />
    <path
        d="M518.406 42.1467C518.406 71.8003 506.688 86.6271 483.253 86.6271H454.966V1.37285H483.802C496.344 1.37285 505.223 4.89652 510.441 11.9438C515.751 18.8996 518.406 28.9672 518.406 42.1467ZM482.841 66.858C487.693 66.858 490.805 65.1649 492.178 61.7785C493.643 58.3006 494.375 52.5346 494.375 44.4805C494.375 36.3349 493.597 30.5689 492.041 27.1825C490.576 23.7962 487.372 22.103 482.429 22.103H478.31V66.858H482.841Z"
        fill="black" />
    <path d="M551.961 86.6271H528.617V1.37285H551.961V86.6271Z" fill="black" />
    <path
        d="M570.543 10.2964C575.852 3.43214 584.503 0 596.495 0C608.487 0 617.047 3.38638 622.173 10.1591C627.391 16.9319 630 27.9605 630 43.2449C630 58.4379 627.345 69.6953 622.036 77.0172C616.726 84.3391 608.121 88 596.22 88C584.32 88 575.76 84.3848 570.543 77.1544C565.325 69.9241 562.716 58.7124 562.716 43.5195C562.716 28.2351 565.325 17.1607 570.543 10.2964ZM606.382 43.2449C606.382 34.8248 605.695 29.1503 604.322 26.2215C603.04 23.2013 600.34 21.6911 596.22 21.6911C592.193 21.6911 589.584 23.2013 588.393 26.2215C587.203 29.1503 586.608 34.779 586.608 43.1077V46.4025C586.608 55.2803 587.249 61.1378 588.531 63.975C589.904 66.7208 592.604 68.0936 596.632 68.0936C600.752 68.0936 603.407 66.7665 604.597 64.1123C605.787 61.4581 606.382 55.9667 606.382 47.6381V43.2449Z"
        fill="black" />
</svg>